<svg width="120" height="42" viewBox="0 0 120 42" fill="none" xmlns="http://www.w3.org/2000/svg">
<path d="M93.9186 39.9984C93.9186 36.3674 93.9276 32.8724 93.9067 29.3773C93.9067 28.9427 94.154 28.7801 94.4401 28.582C97.8342 26.2224 101.225 23.8628 104.617 21.5002C104.858 21.3317 105.096 21.1602 105.388 20.9562C102.906 19.2294 100.468 17.5351 98.0339 15.8408C96.8151 14.9922 95.5963 14.1436 94.3805 13.2949C94.1391 13.1264 93.9097 12.9874 93.9127 12.6149C93.9276 9.09618 93.9216 5.57751 93.9216 2.06474C94.2226 1.96717 94.3656 2.19189 94.5325 2.30721C100.394 6.35812 106.25 10.4209 112.117 14.4688C112.484 14.7201 112.635 14.9804 112.635 15.4298C112.618 19.1229 112.621 22.819 112.635 26.5121C112.635 26.9202 112.525 27.1833 112.174 27.4258C106.264 31.4974 100.367 35.5868 94.4669 39.6702C94.3298 39.7648 94.1838 39.8447 93.9276 40.0014L93.9186 39.9984Z" fill="#F5C443"/>
<path d="M46.4753 11.6216C46.4753 8.6677 46.4932 5.71378 46.4604 2.75987C46.4545 2.13006 46.6511 1.997 47.2561 1.99996C51.2998 2.02657 55.3436 1.99996 59.3903 2.02065C60.7581 2.02952 62.0871 2.23946 63.3536 2.84266C65.3054 3.77112 66.2888 5.37966 66.6255 7.37555C67.0606 9.95394 66.852 12.5737 66.7537 15.1669C66.6941 16.7429 66.0981 18.2391 64.9121 19.3923C63.8661 20.4094 62.5639 20.918 61.1455 21.196C60.3111 21.3586 59.4797 21.2906 58.6453 21.2935C54.8727 21.3024 51.1031 21.2817 47.3306 21.3113C46.675 21.3172 46.4455 21.1841 46.4575 20.4774C46.5022 17.5235 46.4753 14.5696 46.4753 11.6157V11.6216ZM51.27 19.9511C51.866 19.135 52.3607 18.5229 52.7719 17.8636C52.9894 17.5176 53.2308 17.4378 53.6063 17.4407C55.2691 17.4555 56.9319 17.4762 58.5917 17.4407C60.6687 17.3934 61.807 16.2432 61.8815 14.3952C61.956 12.5767 61.956 10.7493 61.8815 8.93382C61.81 7.20405 60.8862 6.15436 59.1638 5.97695C56.768 5.73153 54.3602 5.94146 51.9584 5.86163C51.3982 5.84389 51.2551 6.0006 51.2581 6.55649C51.2819 10.7907 51.273 15.022 51.273 19.2562C51.273 19.4189 51.273 19.5845 51.273 19.9541L51.27 19.9511Z" fill="#0A04F3"/>
<path d="M32.5919 21.3348C30.5834 21.3348 28.569 21.4206 26.5665 21.3111C24.6534 21.2077 22.6866 19.9037 22.5734 17.6505C22.4303 14.7765 22.5078 11.8935 22.4929 9.01353C22.487 8.00524 22.5197 6.99399 22.481 5.98569C22.4601 5.48007 22.6449 5.36475 23.1157 5.37954C24.108 5.41206 25.1003 5.36179 26.0927 5.40023C26.6439 5.42093 27.0224 5.23465 27.374 4.82364C28.0445 4.03416 28.7716 3.29198 29.454 2.50841C29.7222 2.2009 30.0232 2.06784 30.4225 2.06784C33.1759 2.07967 35.9323 2.06193 38.6858 2.10037C40.1728 2.12106 41.3975 2.70357 42.2438 3.98094C42.7504 4.74381 42.9232 5.60721 42.9322 6.47653C42.9679 9.9479 43.0246 13.4222 42.9232 16.8906C42.8458 19.611 41.2843 21.252 38.3282 21.2993C36.4181 21.3318 34.5079 21.3052 32.5948 21.3052C32.5948 21.3171 32.5948 21.3259 32.5948 21.3378L32.5919 21.3348ZM38.0689 11.6806C38.0689 10.4003 38.0689 9.11998 38.0689 7.83965C38.0689 6.40853 37.6041 5.93247 36.1678 5.92656C33.9358 5.91769 31.7009 5.9236 29.4689 5.92656C28.5332 5.92656 27.3323 7.10635 27.3293 8.03776C27.3234 10.5748 27.3263 13.1088 27.3293 15.6458C27.3293 16.799 27.8061 17.4022 28.9385 17.4229C31.4684 17.4731 34.0014 17.4702 36.5313 17.4229C37.5922 17.4022 38.066 16.8078 38.0719 15.7463C38.0779 14.3921 38.0719 13.0378 38.0719 11.6836L38.0689 11.6806Z" fill="#0A04F3"/>
<path d="M88.5429 2.07372C87.8873 3.3777 87.0052 4.49539 86.2573 5.69293C86.0785 5.97974 85.7596 5.86147 85.5003 5.86442C82.7201 5.87034 79.9428 5.86738 77.1625 5.87034C75.8573 5.87034 74.6654 7.06787 74.6654 8.37185C74.6654 9.40675 74.6773 10.4387 74.6594 11.4736C74.6535 11.8136 74.7428 11.9674 75.1124 11.9467C75.5832 11.9201 76.054 11.9319 76.5278 11.9437C76.9569 11.9556 77.2728 11.7841 77.5559 11.4618C78.2681 10.6457 79.0131 9.86211 79.7253 9.04602C79.9905 8.74146 80.2825 8.60544 80.6908 8.6084C82.3029 8.62318 83.918 8.63501 85.5302 8.60249C86.0159 8.59362 86.1112 8.76511 86.0963 9.19682C86.0665 10.0809 86.0636 10.9709 86.0963 11.855C86.1142 12.3281 85.9831 12.4819 85.4795 12.476C83.5932 12.4435 81.7069 12.476 79.8206 12.4553C79.3319 12.4494 78.9773 12.5913 78.6585 12.9668C78.0506 13.6824 77.386 14.3477 76.7781 15.0632C76.3222 15.5984 75.8275 15.9769 75.0766 15.8675C74.6683 15.8084 74.6207 16.0094 74.719 16.3436C74.9306 17.0562 75.5385 17.4406 76.5397 17.4435C78.8969 17.4524 81.254 17.4435 83.6111 17.4435C84.8507 17.4435 86.0934 17.4613 87.333 17.4347C87.8008 17.4228 87.929 17.5825 87.9111 18.026C87.8813 18.8865 87.8664 19.7499 87.9141 20.6103C87.9439 21.1633 87.777 21.317 87.2138 21.3111C83.0956 21.2845 78.9743 21.2668 74.8561 21.3022C72.6033 21.32 70.6425 19.9953 70.0405 18.0438C69.9064 17.6062 69.7872 17.1833 69.7872 16.7191C69.7932 13.1502 69.7962 9.57825 69.7694 6.00931C69.7664 5.49777 69.8886 5.32923 70.422 5.35289C71.4381 5.39724 72.4573 5.34697 73.4734 5.37358C73.9621 5.38541 74.3137 5.21096 74.6237 4.85022C75.3031 4.06665 76.0123 3.30969 76.6917 2.52316C76.9897 2.18017 77.3324 2.00867 77.7883 2.00867C81.2867 2.01458 84.7852 2.00867 88.2866 2.01458C88.3521 2.01458 88.4177 2.04415 88.5369 2.07076L88.5429 2.07372Z" fill="#0A04F3"/>
<path d="M12.8708 21.3289C10.7848 21.3289 8.70189 21.3437 6.61594 21.326C4.47934 21.3053 2.63179 19.7026 2.13712 17.6772C2.02091 17.1982 2.01495 16.7221 2.01495 16.2431C2.01197 12.8427 2.02687 9.44525 2.00005 6.04781C1.99707 5.49487 2.13116 5.32633 2.69437 5.3559C3.6837 5.40617 4.67899 5.35294 5.67131 5.3766C6.18385 5.38843 6.54442 5.21101 6.8752 4.81775C7.56952 3.99574 8.31748 3.21513 9.03564 2.4079C9.30681 2.10334 9.6495 2.01464 10.0339 2.01464C13.4578 2.01464 16.8847 2.02351 20.3087 2.00577C20.8778 2.00577 20.8033 2.19205 20.5679 2.54096C19.9392 3.47829 19.3015 4.41266 18.7144 5.3766C18.473 5.76986 18.1929 5.87927 17.7519 5.87631C14.9478 5.85857 12.1437 5.86448 9.33959 5.86744C8.07312 5.86744 6.89307 7.06201 6.89307 8.32755C6.89307 10.764 6.89307 13.2034 6.89307 15.6399C6.89307 16.8818 7.50098 17.4909 8.7436 17.4909C12.2927 17.4939 15.8418 17.5086 19.3909 17.4761C20.0226 17.4702 20.1924 17.6506 20.1507 18.2538C20.0941 19.0639 20.106 19.88 20.1507 20.6902C20.1776 21.1988 20.0375 21.3585 19.5011 21.3526C17.293 21.323 15.0849 21.3407 12.8768 21.3407C12.8768 21.3348 12.8768 21.3289 12.8768 21.323L12.8708 21.3289Z" fill="#0A04F3"/>
<path d="M47.2799 28.1502C47.5958 27.2513 47.8878 26.4145 48.1888 25.5836C48.2871 25.3145 48.5344 25.35 48.755 25.35C51.6336 25.35 54.5122 25.3027 57.3908 25.3648C59.8134 25.418 60.9726 26.7486 60.8534 28.9603C60.8058 29.8326 60.9786 30.7108 60.6925 31.5831C60.2694 32.8693 59.1728 33.7327 57.7841 33.7416C55.6743 33.7534 53.5646 33.7475 51.4548 33.7505C50.2777 33.7505 49.8069 34.2206 49.8039 35.3797C49.8039 36.1584 50.1853 36.5477 50.9482 36.5477C53.9013 36.5477 56.8544 36.5477 59.8075 36.5477C60.4949 36.5477 60.8385 36.9005 60.8385 37.6062C60.8385 37.9758 60.8028 38.3484 60.8475 38.7121C60.91 39.2414 60.7015 39.3597 60.1889 39.3567C56.2673 39.336 52.3458 39.3449 48.4272 39.3449C47.2451 39.3449 46.6541 38.7653 46.6541 37.6062C46.6541 36.4501 46.6511 35.291 46.6511 34.1349C46.6511 32.2809 47.9981 30.9444 49.8605 30.9444C51.9465 30.9444 54.0294 30.9415 56.1154 30.9444C56.6517 30.9444 57.2001 30.9089 57.4325 30.356C57.6649 29.806 57.6828 29.191 57.3729 28.6587C57.0391 28.0851 56.4074 28.1531 55.8591 28.1502C53.204 28.1324 50.5489 28.1413 47.8938 28.1413H47.2829L47.2799 28.1502Z" fill="#0A04F3"/>
<path d="M73.4883 39.3543C73.8012 38.4584 74.1111 37.6216 74.3793 36.7729C74.5015 36.3885 74.7816 36.56 74.9842 36.56C77.6393 36.5482 80.2974 36.5512 82.9525 36.5512C84.1832 36.5512 84.8328 35.4305 84.2428 34.3453C83.9061 33.7244 83.2863 33.7865 82.7528 33.7776C80.2706 33.7481 77.7883 33.754 75.306 33.7717C74.7667 33.7747 74.5223 33.7185 74.7965 33.0916C75.0915 32.4204 75.0647 31.4269 75.5504 31.0662C76.0331 30.7084 76.9778 30.9538 77.7198 30.9509C79.1352 30.945 80.5507 30.9568 81.9662 30.9449C82.9316 30.939 83.1879 30.67 83.176 29.7238C83.1611 28.2897 83.0151 28.1507 81.543 28.1478C79.4064 28.1478 77.2728 28.1389 75.1362 28.1537C74.6653 28.1566 74.4419 28.1271 74.716 27.5771C74.9991 27.0153 75.2137 26.415 75.4014 25.8148C75.5325 25.3949 75.7858 25.3358 76.1762 25.3387C78.4349 25.3535 80.6937 25.3387 82.9525 25.3506C83.6617 25.3535 84.368 25.4629 85.0146 25.7616C86.0963 26.2613 86.5195 27.237 86.5612 28.3163C86.6029 29.3837 86.8026 30.4866 86.3615 31.5245C86.2513 31.7847 86.4241 31.7995 86.5522 31.903C87.3211 32.5328 87.6906 33.3578 87.6518 34.3365C87.6161 35.1851 87.7263 36.0308 87.5237 36.8912C87.178 38.3519 86.2185 39.3188 84.666 39.3365C80.9679 39.3809 77.2698 39.3513 73.4883 39.3513V39.3543Z" fill="#0A04F3"/>
<path d="M71.5215 32.3465C71.5215 34.4636 71.5037 36.5837 71.5335 38.7008C71.5394 39.2153 71.4023 39.3957 70.8719 39.3602C70.2044 39.3159 69.528 39.3129 68.8635 39.3602C68.3092 39.4016 68.2198 39.1739 68.2228 38.6861C68.2406 35.3862 68.2228 32.0863 68.2436 28.7835C68.2466 28.2808 68.1304 28.13 67.597 28.1123C66.8014 28.0827 66.1756 28.2128 65.7077 28.9373C65.3918 29.4251 64.9329 29.8214 64.5336 30.2531C64.3459 30.4571 62.8977 30.6227 62.704 30.46C62.6563 30.4186 62.6205 30.3359 62.6205 30.2738C62.6146 29.4843 62.6175 28.6977 62.6205 27.9083C62.6205 27.7575 62.7099 27.6954 62.853 27.6954C62.9275 27.6954 63.0049 27.6776 63.0765 27.6954C64.8078 28.1507 65.7584 27.0389 66.6643 25.9005C66.9861 25.4925 67.3139 25.3062 67.8384 25.324C68.8307 25.3594 69.826 25.3772 70.8153 25.318C71.4381 25.2826 71.5424 25.5132 71.5364 26.0661C71.5066 28.1596 71.5245 30.2531 71.5245 32.3465H71.5215Z" fill="#0A04F3"/>
</svg>
