<?xml version="1.0" encoding="utf-8"?>
<!-- Generator: Adobe Illustrator 20.1.0, SVG Export Plug-In . SVG Version: 6.00 Build 0)  -->
<svg version="1.2" baseProfile="tiny" id="Calque_1"
	 xmlns="http://www.w3.org/2000/svg" xmlns:xlink="http://www.w3.org/1999/xlink" x="0px" y="0px" viewBox="0 0 80 90"
	 xml:space="preserve">
<metadata><?xpacket begin="﻿" id="W5M0MpCehiHzreSzNTczkc9d"?>
<x:xmpmeta xmlns:x="adobe:ns:meta/" x:xmptk="Adobe XMP Core 5.6-c132 79.159284, 2016/04/19-13:13:40        ">
   <rdf:RDF xmlns:rdf="http://www.w3.org/1999/02/22-rdf-syntax-ns#">
      <rdf:Description rdf:about=""/>
   </rdf:RDF>
</x:xmpmeta>
                                                                                                    
                                                                                                    
                                                                                                    
                                                                                                    
                                                                                                    
                                                                                                    
                                                                                                    
                                                                                                    
                                                                                                    
                                                                                                    
                                                                                                    
                                                                                                    
                                                                                                    
                                                                                                    
                                                                                                    
                                                                                                    
                                                                                                    
                                                                                                    
                                                                                                    
                                                                                                    
                           
<?xpacket end="w"?></metadata>
<g id="XMLID_66_">
	<path id="XMLID_109_" fill="#E2231A" d="M6.6,0.6l70.3,40.6c2.9,1.7,2.9,5.9,0,7.6L6.6,89.4C3.7,91.1,0,89,0,85.6L0,4.4
		C0,1,3.7-1.1,6.6,0.6z"/>
	<g id="XMLID_67_">
		<g id="XMLID_79_">
			<g id="XMLID_80_">
				<path id="XMLID_106_" fill="#FFFFFF" d="M4.4,51.6h4.5c4.2,0,5.9-2.4,5.9-5.8v-1.8c0-3.5-2-5.5-6.1-5.5H4.4V51.6z M6.7,49.7
					v-9.4h2.1c2.5,0,3.7,1.2,3.7,3.7v1.6c0,2.6-1.1,4-3.6,4H6.7z"/>
				<path id="XMLID_105_" fill="#FFFFFF" d="M16.1,51.6H18c2.6,0,4.1-1.5,4.1-4.1v-9.1h-5.4v1.9h3.2v7.2c0,1.4-0.6,2.2-2,2.2h-1.8
					V51.6z"/>
				<path id="XMLID_84_" fill="#FFFFFF" d="M27.7,51.6h4.6v-1.9h-4.1c-1.1,0-1.6-0.5-1.6-1.8v-2.2h5.1v-1.9h-5.1v-3.5h5.6v-1.9h-7.9
					V48C24.2,50.4,25.4,51.6,27.7,51.6"/>
				<path id="XMLID_83_" fill="#FFFFFF" d="M33.9,51.6h9.4v-1.9H37c1.8-2.4,5.2-7.7,6.2-10.2v-1.1h-9.1v1.9h6.1
					c-1.1,2.6-4.6,7.8-6.4,10.1V51.6z"/>
				<path id="XMLID_82_" fill="#FFFFFF" d="M44.6,51.6h9.4v-1.9h-6.3c1.8-2.4,5.1-7.7,6.2-10.2v-1.1h-9v1.9h6.1
					c-1.1,2.6-4.6,7.8-6.4,10.1V51.6z"/>
				<polygon id="XMLID_81_" fill="#FFFFFF" points="59.4,51.6 61.6,51.6 61.6,46.3 65.9,38.6 65.9,38.4 63.7,38.4 60.6,44.5 
					57.5,38.4 55.1,38.4 55.1,38.6 59.4,46.4 				"/>
			</g>
		</g>
		<g id="XMLID_68_">
			<path id="XMLID_77_" fill="#FFFFFF" d="M17.8,59.1v2.2c0,2.5-1.1,3.5-3.4,3.5v-1.3c1.3,0,1.9-0.6,1.9-1.9v-2.4H17.8z"/>
			<g id="XMLID_75_">
				<path id="XMLID_76_" fill="#FFFFFF" d="M30.3,57c-0.7-0.5-1.6-0.7-2.6-0.7c-0.6,0-1.2,0.1-1.8,0.4c-0.6,0.2-1,0.6-1.5,1
					c0.3,0.5,0.6,0.9,0.7,1.2c0.3-0.4,0.7-0.7,1.2-0.9c0.4-0.2,0.8-0.3,1.1-0.3c1,0,1.8,0.3,2.3,1c0.5,0.6,0.7,1.3,0.7,2.2h-7.8
					c-0.6,0-1-0.1-1.2-0.2c-0.3-0.2-0.4-0.6-0.4-1.3V56h-1.5v4c0,0.7,0.2,1.3,0.5,1.8c0.4,0.5,1,0.7,1.7,0.7h10.4v-1
					C32.3,59.3,31.6,57.9,30.3,57z"/>
			</g>
			<path id="XMLID_74_" fill="#FFFFFF" d="M10.3,59.8c0.3-0.6,0.6-1.1,1.1-1.3c0.4-0.2,1-0.3,1.7-0.3v-1.4c-2.9,0-4.6,1.6-4.6,4.5
				H12c-0.5,1.2-1.5,1.9-2.9,1.9c-1,0-1.8-0.3-2.4-1c-0.5-0.6-0.8-1.4-0.8-2.4v-1.3H4.4V60c0,1.3,0.5,2.4,1.3,3.3
				c0.9,0.9,2,1.3,3.3,1.3h0.1c1.3,0,2.4-0.5,3.3-1.3c0.6-0.6,1-1.2,1.2-2c0.1-0.3,0.2-0.9,0.2-1.5H10.3z"/>
			<circle id="XMLID_73_" fill="#FFFFFF" cx="27.7" cy="64" r="0.8"/>
			<circle id="XMLID_72_" fill="#FFFFFF" cx="17" cy="57.5" r="0.8"/>
			<g id="XMLID_69_">
				<circle id="XMLID_71_" fill="#FFFFFF" cx="10.4" cy="66.2" r="0.8"/>
				<circle id="XMLID_70_" fill="#FFFFFF" cx="7.9" cy="66.2" r="0.8"/>
			</g>
		</g>
	</g>
</g>
</svg>
